<?xml version="1.0" standalone="no"?>
<!DOCTYPE svg PUBLIC "-//W3C//DTD SVG 20010904//EN"
 "http://www.w3.org/TR/2001/REC-SVG-20010904/DTD/svg10.dtd">
<svg version="1.0" xmlns="http://www.w3.org/2000/svg"
 width="149.000000pt" height="47.000000pt" viewBox="0 0 149.000000 47.000000"
 preserveAspectRatio="xMidYMid meet">

<g transform="translate(0.000000,47.000000) scale(0.100000,-0.100000)"
fill="#000000" stroke="none">
<path d="M0 235 l0 -235 745 0 745 0 0 235 0 235 -745 0 -745 0 0 -235z m1460
0 l0 -205 -715 0 -715 0 0 205 0 205 715 0 715 0 0 -205z"/>
<path d="M150 340 c-11 -11 -20 -29 -20 -40 0 -26 32 -58 67 -66 51 -12 66
-24 52 -40 -15 -18 -53 -18 -69 1 -18 22 -50 19 -50 -4 0 -49 106 -70 148 -31
44 42 17 94 -64 120 -42 14 -46 40 -5 40 17 0 33 -4 36 -10 9 -15 45 -12 45 4
0 43 -104 62 -140 26z"/>
<path d="M354 250 l-42 -110 24 0 c17 0 25 7 30 25 5 22 11 25 54 25 43 0 49
-3 54 -25 5 -18 13 -25 31 -25 l24 0 -38 108 c-36 100 -40 107 -67 110 -28 3
-30 0 -70 -108z m85 19 c14 -41 15 -39 -18 -39 -29 0 -29 1 -18 35 13 43 22
44 36 4z"/>
<path d="M550 250 c0 -102 1 -110 20 -110 17 0 19 8 22 68 l3 67 40 -67 c34
-58 44 -68 68 -68 l28 0 -3 108 c-3 102 -4 107 -25 110 -21 3 -22 -1 -25 -65
l-3 -68 -40 68 c-30 52 -44 67 -62 67 -23 0 -23 -2 -23 -110z"/>
<path d="M770 250 l0 -110 55 0 c93 0 125 28 125 111 0 80 -31 108 -117 109
l-63 0 0 -110z m121 54 c7 -9 14 -33 14 -54 0 -49 -19 -70 -61 -70 l-34 0 0
70 0 70 34 0 c19 0 39 -7 47 -16z"/>
<path d="M980 250 l0 -110 25 0 c23 0 25 4 25 46 0 38 3 45 17 42 10 -2 31
-22 48 -45 28 -39 33 -42 81 -42 47 -1 52 1 58 24 6 22 12 25 51 25 39 0 47
-3 55 -25 9 -23 50 -37 50 -17 0 4 -16 53 -36 110 -35 96 -38 102 -64 102 -26
0 -31 -6 -56 -72 -53 -143 -54 -145 -67 -124 -7 10 -23 32 -35 47 -13 16 -19
29 -14 29 20 0 42 32 42 59 0 46 -27 61 -108 61 l-72 0 0 -110z m125 45 c0
-16 -8 -21 -37 -23 -35 -3 -38 -1 -38 23 0 24 3 26 38 23 29 -2 37 -7 37 -23z
m189 -63 c-34 -5 -35 -2 -22 43 l12 38 18 -39 17 -39 -25 -3z"/>
</g>
</svg>
